The year was 1960. A payola scandal shocks the music world. Movie fans are introduced to glorious Smell-O-Vision. The 50-star flag is adopted. And in G.I. Blues, Elvis adopts an on-screen persona he knows well in real life - a singin' G.I. in West Germany. Eager to open a stateside nightclub after his hitch in khakis, he takes part in a wager to raise the dough he needs. The bet: he can melt the heart of a willowy dancer (Juliet Prowse). But all bets may be off when real love intervenes...

Format : MPEG-4
Format profile : Base Media / Version 2
Codec ID : mp42
File size : 900 MiB
Duration : 1h 39mn
Overall bit rate : 1 263 Kbps
Encoded date : UTC 2009-07-23 05:58:54
Tagged date : UTC 2009-07-23 11:18:10
Writing application : HandBrake 0.9.3 2008112300

Video
ID : 1
Format : AVC
Format/Info : Advanced Video Codec
Format profile : Main@L4.0
Format settings, CABAC : Yes
Format settings, ReFrames : 3 frames
Codec ID : avc1
Codec ID/Info : Advanced Video Coding
Duration : 1h 39mn
Bit rate mode : Variable
Bit rate : 1 099 Kbps
Width : 714 pixels
Height : 576 pixels
Display aspect ratio : 16/9
Frame rate mode : Variable
Frame rate : 25.000 fps
Minimum frame rate : 12.500 fps
Maximum frame rate : 25.000 fps
Resolution : 24 bits
Colorimetry : 4:2:0
Scan type : Progressive
Bits/(Pixel*Frame) : 0.107
Stream size : 783 MiB (87%)
Writing library : x264 core 65


Audio
ID : 2
Format : AAC
Format/Info : Advanced Audio Codec
Format version : Version 4
Format profile : LC
Format settings, SBR : No
Codec ID : 40
Duration : 1h 39mn
Bit rate mode : Variable
Bit rate : 160 Kbps
Maximum bit rate : 202 Kbps
Channel(s) : 2 channels
Channel positions : L R
Sampling rate : 48.0 KHz
Resolution : 16 bits
Stream size : 114 MiB (13%)
Language : English
Encoded date : UTC 2009-07-23 05:58:55
Tagged date : UTC 2009-07-23 11:18:08

